Coordinates
version=1
nRows=14
nColumns=24
inDegrees=yes

Units are S.I. units (second, meters, Newtons, ...)
Angles are in degrees.

endheader
time	pelvis_tilt	pelvis_list	pelvis_rotation	pelvis_tx	pelvis_ty	pelvis_tz	hip_flexion_r	hip_adduction_r	hip_rotation_r	knee_angle_r	ankle_angle_r	subtalar_angle_r	mtp_angle_r	hip_flexion_l	hip_adduction_l	hip_rotation_l	knee_angle_l	ankle_angle_l	subtalar_angle_l	mtp_angle_l	lumbar_extension	lumbar_bending	lumbar_rotation
      1.06300000	     -2.47893541	     -1.73287891	     -6.08992527	     -0.15486671	      0.88679285	      0.38221388	    -15.65822334	      5.93744033	      1.98404493	     -6.34227284	     18.72199372	     13.94495600	      7.91180246	     28.27500852	     -3.31142917	    -14.81997533	     -6.27622742	      1.70289603	      0.73446592	     -0.24523410	     -4.68632956	      2.54972817	     13.04798534
      1.06716667	     -2.60801397	     -1.69561181	     -6.22216579	     -0.14928689	      0.88564106	      0.38228415	    -15.64091993	      5.82531454	      2.07845114	     -6.88565865	     18.88120207	     14.05368130	      8.04699927	     28.48819479	     -3.29431592	    -14.61813167	     -6.69091593	      1.59045619	      0.59345115	     -0.21863873	     -4.54075181	      2.43576305	     13.08554373
      1.07133333	     -2.69767309	     -1.62616488	     -6.31797365	     -0.14363854	      0.88459011	      0.38225454	    -15.63449574	      5.66868358	      1.96932774	     -7.48525192	     19.02311144	     14.42701094	      8.36551396	     28.65173083	     -3.21584006	    -14.36356149	     -7.14998678	      1.38347176	      0.28422457	     -0.13043578	     -4.42634703	      2.28981585	     13.16851717
      1.07550000	     -2.78948523	     -1.55199642	     -6.41741205	     -0.13798226	      0.88359668	      0.38225396	    -15.61512559	      5.51293520	      1.94343412	     -8.10589911	     19.13415753	     14.64470408	      8.68327021	     28.81840714	     -3.13900865	    -14.10877074	     -7.68021004	      1.16913346	     -0.03866466	     -0.02215663	     -4.31896973	      2.12659296	     13.19965128
      1.07966667	     -2.86351001	     -1.46252792	     -6.50144274	     -0.13227807	      0.88268983	      0.38222812	    -15.60414249	      5.34085078	      1.89706816	     -8.74678346	     19.20408211	     14.87744915	      9.04036410	     28.96360734	     -3.03715668	    -13.84393129	     -8.26065173	      0.90977391	     -0.43011584	      0.11437850	     -4.22230576	      1.94159223	     13.22067495
      1.08383333	     -2.93711993	     -1.36350163	     -6.59856134	     -0.12655900	      0.88185257	      0.38222482	    -15.56697468	      5.15880372	      1.90501943	     -9.44246589	     19.25094746	     15.00410247	      9.29605095	     29.10393224	     -2.93289297	    -13.60213994	     -8.88886945	      0.66901495	     -0.81815904	      0.21662020	     -4.12474614	      1.72808755	     13.20896573
      1.08800000	     -3.00424704	     -1.25651598	     -6.65713013	     -0.12078988	      0.88108085	      0.38214602	    -15.52627550	      4.97020059	      1.82403794	    -10.15041119	     19.20561614	     15.22637950	      9.61993345	     29.24490337	     -2.79722375	    -13.31350196	     -9.56608959	      0.35382114	     -1.33381397	      0.35007666	     -4.02589227	      1.52009606	     13.19653281
      1.09216667	     -2.99914532	     -1.13205834	     -6.69149145	     -0.11493202	      0.88049413	      0.38203283	    -15.57854199	      4.75791587	      1.72805172	    -10.81088678	     18.97037689	     15.35259264	     14.17065962	     29.29778625	     -2.62613870	    -13.05736879	    -10.25678112	     -0.03385537	     -1.88454051	      2.32864960	     -4.00437033	      1.27740484	     13.15572823
      1.09633333	     -3.06176243	     -1.02082422	     -6.73377068	     -0.10910161	      0.87986331	      0.38194353	    -15.51017740	      4.57274029	      1.69244083	    -11.58207471	     18.83221458	     15.45699980	     14.22109682	     29.45094089	     -2.48764037	    -12.81593943	    -11.04764798	     -0.30587586	     -2.36037971	      2.35516188	     -3.90208546	      1.05366159	     13.11797152
      1.10050000	     -3.09809853	     -0.89214648	     -6.75080821	     -0.10321345	      0.87934779	      0.38179350	    -15.45251737	      4.36652930	      1.60243496	    -12.38146328	     18.63171660	     15.61762623	     14.33644031	     29.56041476	     -2.30518319	    -12.52692596	    -11.82465682	     -0.63250971	     -2.96197645	      2.40000764	     -3.82457907	      0.81051910	     13.05250833
      1.10466667	     -3.12177188	     -0.75740660	     -6.75170622	     -0.09728094	      0.87892204	      0.38161297	    -15.38977533	      4.15494365	      1.50060729	    -13.21338112	     18.37357055	     15.75721277	     14.51971409	     29.65437463	     -2.10639426	    -12.23506749	    -12.62150413	     -0.94608377	     -3.58389459	      2.46125585	     -3.75287784	      0.55602516	     12.96558168
      1.10883333	     -3.13666417	     -0.62065291	     -6.73739390	     -0.09131845	      0.87858020	      0.38140746	    -15.31196346	      3.94350802	      1.39265930	    -14.08912781	     18.05377951	     15.87757268	     14.77835699	     29.74047907	     -1.89730038	    -11.94266642	    -13.44120273	     -1.23542143	     -4.21222092	      2.53655444	     -3.69149586	      0.29725595	     12.86308173
      1.11300000	     -3.09756326	     -0.47349219	     -6.70527973	     -0.08529852	      0.87839572	      0.38115508	    -15.27245978	      3.71223951	      1.23863201	    -14.98627994	     17.59579047	     15.95745519	     18.96458147	     29.76045620	     -1.66448810	    -11.68151589	    -14.26143531	     -1.52928715	     -4.83353002	      3.67332405	     -3.69914977	      0.02539815	     12.77286059
      1.11716667	     -3.09626379	     -0.33168419	     -6.66842711	     -0.07927619	      0.87823196	      0.38090090	    -15.15233655	      3.49703257	      1.12247286	    -15.96657012	     17.15135570	     16.02258155	     19.09078246	     29.82012813	     -1.43763671	    -11.39756575	    -15.09708334	     -1.74765124	     -5.43007257	      3.69830179	     -3.65132578	     -0.23991311	     12.61865954
